<mxfile host="app.diagrams.net" modified="2022-01-20T13:52:26.850Z" agent="5.0 (X11; Linux x86_64) AppleWebKit/537.36 (KHTML, like Gecko) Chrome/96.0.4664.137 Safari/537.36" etag="5b3GMoYSUR5Kx-vWAGtu" version="16.4.3" type="github">
  <diagram id="P2cz6ALvrC-aT5AwIWP3" name="Page-1">
    <mxGraphModel dx="1422" dy="787" grid="1" gridSize="10" guides="1" tooltips="1" connect="1" arrows="1" fold="1" page="1" pageScale="1" pageWidth="827" pageHeight="1169" math="0" shadow="0">
      <root>
        <mxCell id="0" />
        <mxCell id="1" parent="0" />
        <mxCell id="m1kTsd8cJOKcklktA0y1-4" style="edgeStyle=orthogonalEdgeStyle;rounded=1;sketch=1;orthogonalLoop=1;jettySize=auto;html=1;entryX=0.5;entryY=0;entryDx=0;entryDy=0;entryPerimeter=0;" edge="1" parent="1" source="m1kTsd8cJOKcklktA0y1-1" target="m1kTsd8cJOKcklktA0y1-3">
          <mxGeometry relative="1" as="geometry" />
        </mxCell>
        <mxCell id="m1kTsd8cJOKcklktA0y1-1" value="Method 1" style="shape=hexagon;perimeter=hexagonPerimeter2;whiteSpace=wrap;html=1;fixedSize=1;sketch=1;rounded=1;" vertex="1" parent="1">
          <mxGeometry x="260" y="40" width="120" height="80" as="geometry" />
        </mxCell>
        <mxCell id="m1kTsd8cJOKcklktA0y1-5" style="edgeStyle=orthogonalEdgeStyle;rounded=1;sketch=1;orthogonalLoop=1;jettySize=auto;html=1;entryX=0.5;entryY=0;entryDx=0;entryDy=0;entryPerimeter=0;" edge="1" parent="1" source="m1kTsd8cJOKcklktA0y1-2" target="m1kTsd8cJOKcklktA0y1-3">
          <mxGeometry relative="1" as="geometry" />
        </mxCell>
        <mxCell id="m1kTsd8cJOKcklktA0y1-2" value="Method 2" style="shape=hexagon;perimeter=hexagonPerimeter2;whiteSpace=wrap;html=1;fixedSize=1;sketch=1;rounded=1;" vertex="1" parent="1">
          <mxGeometry x="420" y="40" width="120" height="80" as="geometry" />
        </mxCell>
        <mxCell id="m1kTsd8cJOKcklktA0y1-14" style="edgeStyle=orthogonalEdgeStyle;rounded=1;sketch=1;orthogonalLoop=1;jettySize=auto;html=1;entryX=1;entryY=0.5;entryDx=0;entryDy=0;fontSize=20;" edge="1" parent="1" source="m1kTsd8cJOKcklktA0y1-3" target="m1kTsd8cJOKcklktA0y1-9">
          <mxGeometry relative="1" as="geometry" />
        </mxCell>
        <mxCell id="m1kTsd8cJOKcklktA0y1-15" style="edgeStyle=orthogonalEdgeStyle;rounded=1;sketch=1;orthogonalLoop=1;jettySize=auto;html=1;entryX=0;entryY=0.5;entryDx=0;entryDy=0;fontSize=20;" edge="1" parent="1" source="m1kTsd8cJOKcklktA0y1-3" target="m1kTsd8cJOKcklktA0y1-7">
          <mxGeometry relative="1" as="geometry" />
        </mxCell>
        <mxCell id="m1kTsd8cJOKcklktA0y1-16" style="edgeStyle=orthogonalEdgeStyle;rounded=1;sketch=1;orthogonalLoop=1;jettySize=auto;html=1;entryX=1;entryY=0.5;entryDx=0;entryDy=0;fontSize=20;" edge="1" parent="1" source="m1kTsd8cJOKcklktA0y1-3" target="m1kTsd8cJOKcklktA0y1-10">
          <mxGeometry relative="1" as="geometry" />
        </mxCell>
        <mxCell id="m1kTsd8cJOKcklktA0y1-17" style="edgeStyle=orthogonalEdgeStyle;rounded=1;sketch=1;orthogonalLoop=1;jettySize=auto;html=1;entryX=0;entryY=0.5;entryDx=0;entryDy=0;fontSize=20;" edge="1" parent="1" source="m1kTsd8cJOKcklktA0y1-3" target="m1kTsd8cJOKcklktA0y1-8">
          <mxGeometry relative="1" as="geometry" />
        </mxCell>
        <mxCell id="m1kTsd8cJOKcklktA0y1-18" style="edgeStyle=orthogonalEdgeStyle;rounded=1;sketch=1;orthogonalLoop=1;jettySize=auto;html=1;entryX=1;entryY=0.5;entryDx=0;entryDy=0;fontSize=20;" edge="1" parent="1" source="m1kTsd8cJOKcklktA0y1-3" target="m1kTsd8cJOKcklktA0y1-12">
          <mxGeometry relative="1" as="geometry" />
        </mxCell>
        <mxCell id="m1kTsd8cJOKcklktA0y1-19" style="edgeStyle=orthogonalEdgeStyle;rounded=1;sketch=1;orthogonalLoop=1;jettySize=auto;html=1;entryX=0;entryY=0.5;entryDx=0;entryDy=0;fontSize=20;" edge="1" parent="1" source="m1kTsd8cJOKcklktA0y1-3" target="m1kTsd8cJOKcklktA0y1-11">
          <mxGeometry relative="1" as="geometry" />
        </mxCell>
        <mxCell id="m1kTsd8cJOKcklktA0y1-20" style="edgeStyle=orthogonalEdgeStyle;rounded=1;sketch=1;orthogonalLoop=1;jettySize=auto;html=1;entryX=0.5;entryY=0;entryDx=0;entryDy=0;fontSize=20;" edge="1" parent="1" source="m1kTsd8cJOKcklktA0y1-3" target="m1kTsd8cJOKcklktA0y1-13">
          <mxGeometry relative="1" as="geometry" />
        </mxCell>
        <mxCell id="m1kTsd8cJOKcklktA0y1-3" value="&lt;b&gt;&lt;font style=&quot;font-size: 20px&quot;&gt;SPV&lt;/font&gt;&lt;/b&gt;" style="strokeWidth=2;html=1;shape=mxgraph.flowchart.terminator;whiteSpace=wrap;rounded=1;sketch=1;" vertex="1" parent="1">
          <mxGeometry x="350" y="160" width="100" height="60" as="geometry" />
        </mxCell>
        <mxCell id="m1kTsd8cJOKcklktA0y1-7" value="" style="ellipse;whiteSpace=wrap;html=1;aspect=fixed;rounded=1;sketch=1;fontSize=12;" vertex="1" parent="1">
          <mxGeometry x="440" y="240" width="80" height="80" as="geometry" />
        </mxCell>
        <mxCell id="m1kTsd8cJOKcklktA0y1-8" value="" style="ellipse;whiteSpace=wrap;html=1;aspect=fixed;rounded=1;sketch=1;fontSize=12;" vertex="1" parent="1">
          <mxGeometry x="440" y="360" width="80" height="80" as="geometry" />
        </mxCell>
        <mxCell id="m1kTsd8cJOKcklktA0y1-9" value="&lt;span style=&quot;font-size: 12px&quot;&gt;Position&lt;/span&gt;" style="ellipse;whiteSpace=wrap;html=1;aspect=fixed;rounded=1;sketch=1;fontSize=20;" vertex="1" parent="1">
          <mxGeometry x="280" y="240" width="80" height="80" as="geometry" />
        </mxCell>
        <mxCell id="m1kTsd8cJOKcklktA0y1-10" value="&lt;font style=&quot;font-size: 12px&quot;&gt;Velocity&lt;/font&gt;" style="ellipse;whiteSpace=wrap;html=1;aspect=fixed;rounded=1;sketch=1;fontSize=20;" vertex="1" parent="1">
          <mxGeometry x="280" y="360" width="80" height="80" as="geometry" />
        </mxCell>
        <mxCell id="m1kTsd8cJOKcklktA0y1-11" value="" style="ellipse;whiteSpace=wrap;html=1;aspect=fixed;rounded=1;sketch=1;fontSize=12;" vertex="1" parent="1">
          <mxGeometry x="440" y="480" width="80" height="80" as="geometry" />
        </mxCell>
        <mxCell id="m1kTsd8cJOKcklktA0y1-12" value="&lt;font style=&quot;font-size: 12px&quot;&gt;Passthrough&lt;/font&gt;" style="ellipse;whiteSpace=wrap;html=1;aspect=fixed;rounded=1;sketch=1;fontSize=20;" vertex="1" parent="1">
          <mxGeometry x="280" y="480" width="80" height="80" as="geometry" />
        </mxCell>
        <mxCell id="m1kTsd8cJOKcklktA0y1-13" value="&lt;font style=&quot;font-size: 12px&quot;&gt;Debug&lt;/font&gt;" style="ellipse;whiteSpace=wrap;html=1;aspect=fixed;rounded=1;sketch=1;fontSize=20;" vertex="1" parent="1">
          <mxGeometry x="360" y="600" width="80" height="80" as="geometry" />
        </mxCell>
      </root>
    </mxGraphModel>
  </diagram>
</mxfile>
